# xmcd
#
# Track frame offsets:
#	150
#	23027
#	46176
#	68024
#	94125
#	116596
#	140337
#	164180
#	186239
#	209449
#
# Disc length: 3103 seconds
#
# Revision: 1891962450
# Processed by: cddbd v1.5.2PL0 Copyright (c) Steve Scherf et al.
# Submitted via: EZCDAudioConverter 8.0.2.1
#
DISCID=8d0c1d0a
DTITLE=Huỳnh Gia Tuấn - Vol 03. Sao Em Nỡ Đành Quên
DYEAR=2012
DGENRE=
TTITLE0=Huỳnh Gia Tuấn - Chuyện hẹn hò
TTITLE1=Huỳnh Gia Tuấn - Gõ cửa
TTITLE2=Huỳnh Gia Tuấn - Chuyện ba mùa mưa
TTITLE3=Huỳnh Gia Tuấn - Biển mặn
TTITLE4=Huỳnh Gia Tuấn - LK Phượng Buồn, Sao Em Nỡ Đành Quên
TTITLE5=Huỳnh Gia Tuấn, Lý Ngọc Thu - Về quê ngoại
TTITLE6=Huỳnh Gia Tuấn - Hai mùa mưa
TTITLE7=Huỳnh Gia Tuấn - Thói đời
TTITLE8=Huỳnh Gia Tuấn - Chuyện hợp tan
TTITLE9=Huỳnh Gia Tuấn - Xin thời gian qua mau
EXTD=
EXTT0=
EXTT1=
EXTT2=
EXTT3=
EXTT4=
EXTT5=
EXTT6=
EXTT7=
EXTT8=
EXTT9=
PLAYORDER=
